Coordinates
version=1
nRows=23
nColumns=38
inDegrees=no

Units are S.I. units (second, meters, Newtons, ...)
If the header above contains a line with 'inDegrees', this indicates whether rotational values are in degrees (yes) or radians (no).

endheader
time	pelvis_tilt	pelvis_list	pelvis_rotation	pelvis_tx	pelvis_ty	pelvis_tz	hip_flexion_r	hip_adduction_r	hip_rotation_r	knee_angle_r	ankle_angle_r	subtalar_angle_r	mtp_angle_r	hip_flexion_l	hip_adduction_l	hip_rotation_l	knee_angle_l	ankle_angle_l	subtalar_angle_l	mtp_angle_l	lumbar_extension	lumbar_bending	lumbar_rotation	arm_flex_r	arm_add_r	arm_rot_r	elbow_flex_r	pro_sup_r	wrist_flex_r	wrist_dev_r	arm_flex_l	arm_add_l	arm_rot_l	elbow_flex_l	pro_sup_l	wrist_flex_l	wrist_dev_l
0.74	3.08304	1.48745	-1.41354	0.58266	0.177111	0.942876	0.179835	-0.152764	-0.0831039	1.31567	-0.461536	0	0	-0.0676517	0.0441659	-0.228203	0.0438648	-0.362228	0	0	-0.150395	0.0037522	-0.140106	-0.216038	-0.246696	-0.230717	0.665789	0.437128	0	0	-0.15453	-0.269788	0.0324568	0.678507	1.5294	0	0
0.75	3.04137	1.48767	-1.37087	0.58152	0.185933	0.943516	0.205758	-0.150315	-0.0799477	1.32104	-0.446757	0	0	-0.0835806	0.0419791	-0.218966	0.0301462	-0.36634	0	0	-0.151054	0.00845995	-0.145684	-0.21308	-0.261156	-0.188595	0.665691	0.395335	0	0	-0.148456	-0.266602	0.016571	0.680391	1.56035	0	0
0.76	2.99628	1.48823	-1.32407	0.580333	0.194678	0.943993	0.230824	-0.147455	-0.0780244	1.32133	-0.432611	0	0	-0.0959615	0.0385612	-0.215567	0.0232272	-0.363032	0	0	-0.150233	0.0139586	-0.147207	-0.214378	-0.261854	-0.19072	0.668265	0.399799	0	0	-0.136981	-0.267844	0.0223367	0.679049	1.56576	0	0
0.77	2.94717	1.48878	-1.27294	0.579151	0.203391	0.944375	0.25504	-0.144447	-0.0776946	1.3176	-0.418018	0	0	-0.107169	0.034625	-0.212789	0.0180198	-0.358935	0	0	-0.149019	0.0197529	-0.148923	-0.215924	-0.262753	-0.192337	0.670734	0.405847	0	0	-0.125104	-0.269	0.0289423	0.677194	1.56978	0	0
0.78	2.89639	1.4888	-1.21995	0.577979	0.21205	0.944678	0.278036	-0.141459	-0.0790793	1.31048	-0.403521	0	0	-0.117936	0.0303361	-0.210194	0.0142443	-0.353694	0	0	-0.147989	0.0259398	-0.151576	-0.215809	-0.262741	-0.195854	0.671977	0.410889	0	0	-0.113082	-0.270106	0.0358737	0.67503	1.57046	0	0
0.79	2.84921	1.48829	-1.17046	0.576812	0.220653	0.944889	0.299966	-0.139572	-0.0829153	1.30073	-0.388256	0	0	-0.128638	0.0262555	-0.20795	0.0115298	-0.346954	0	0	-0.147475	0.0320877	-0.154934	-0.214655	-0.262494	-0.199696	0.672907	0.416358	0	0	-0.101291	-0.271465	0.0434524	0.6736	1.56747	0	0
0.8	2.80545	1.48736	-1.12445	0.575654	0.229218	0.945001	0.320544	-0.138255	-0.0887306	1.28692	-0.374248	0	0	-0.139175	0.0224115	-0.206672	0.00986504	-0.339748	0	0	-0.147481	0.0381292	-0.158422	-0.213427	-0.263041	-0.201708	0.67439	0.423432	0	0	-0.089668	-0.272766	0.0508334	0.673074	1.56244	0	0
0.81	2.76663	1.48646	-1.08443	0.574613	0.237838	0.944989	0.339986	-0.137258	-0.0953767	1.26878	-0.363452	0	0	-0.149564	0.0191124	-0.207456	0.00882524	-0.333263	0	0	-0.147632	0.0437052	-0.161165	-0.211566	-0.26346	-0.204321	0.675896	0.430009	0	0	-0.0783763	-0.273605	0.0570869	0.673121	1.55677	0	0
0.82	2.73362	1.48476	-1.05015	0.573596	0.246437	0.944902	0.357034	-0.136977	-0.105239	1.2474	-0.353692	0	0	-0.160391	0.0157768	-0.208459	0.0085751	-0.326123	0	0	-0.14873	0.0493987	-0.163703	-0.20941	-0.263229	-0.209008	0.678065	0.437357	0	0	-0.0666005	-0.274419	0.0642157	0.673189	1.55024	0	0
0.83	2.71317	1.48135	-1.02726	0.572467	0.254932	0.944832	0.370679	-0.138611	-0.121424	1.22389	-0.345289	0	0	-0.172509	0.0122734	-0.208542	0.00936004	-0.318283	0	0	-0.152089	0.0553927	-0.166384	-0.207795	-0.262949	-0.214782	0.681762	0.447407	0	0	-0.0535999	-0.275442	0.0734659	0.673312	1.54287	0	0
0.84	2.69998	1.47752	-1.01168	0.571357	0.263505	0.944702	0.382534	-0.141459	-0.142257	1.19784	-0.341013	0	0	-0.18502	0.00886647	-0.209733	0.0108456	-0.311037	0	0	-0.155699	0.0611232	-0.168836	-0.205761	-0.26215	-0.222242	0.68524	0.458204	0	0	-0.0403846	-0.276454	0.0840898	0.673155	1.53437	0	0
0.85	2.69422	1.47239	-1.00302	0.5702	0.272149	0.944652	0.390851	-0.144473	-0.168052	1.16709	-0.341212	0	0	-0.198652	0.00495264	-0.212547	0.013551	-0.301044	0	0	-0.162403	0.0669012	-0.179073	-0.198515	-0.28301	-0.163454	0.688075	0.405384	0	0	-0.0362472	-0.272468	0.0654695	0.680723	1.55375	0	0
0.86	2.68933	1.46801	-0.994936	0.569103	0.280803	0.944518	0.39807	-0.146657	-0.19272	1.13252	-0.340575	0	0	-0.210987	0.0011539	-0.216177	0.0172258	-0.292656	0	0	-0.166923	0.0724708	-0.181863	-0.197028	-0.284808	-0.163484	0.692719	0.409042	0	0	-0.0226929	-0.271786	0.0723398	0.679916	1.5535	0	0
0.87	2.6833	1.4646	-0.986086	0.568131	0.289456	0.944275	0.404343	-0.147016	-0.211909	1.09396	-0.338559	0	0	-0.222361	-0.0024037	-0.220233	0.0209973	-0.284458	0	0	-0.170342	0.077385	-0.184218	-0.194785	-0.285734	-0.165004	0.696418	0.41157	0	0	-0.00896727	-0.271117	0.0800969	0.67855	1.554	0	0
0.88	2.67498	1.46251	-0.975511	0.567303	0.298154	0.943872	0.410107	-0.146207	-0.226843	1.05151	-0.334747	0	0	-0.232852	-0.0054792	-0.223918	0.0239195	-0.276836	0	0	-0.172433	0.0814813	-0.186097	-0.191947	-0.285962	-0.167572	0.699533	0.413258	0	0	0.0045684	-0.270512	0.0882378	0.677177	1.55407	0	0
0.89	2.66401	1.46164	-0.963117	0.566676	0.306946	0.9433	0.415157	-0.14406	-0.238723	1.00556	-0.328102	0	0	-0.243056	-0.00787152	-0.225504	0.0249816	-0.269829	0	0	-0.173177	0.0846803	-0.187051	-0.189123	-0.28589	-0.170093	0.702285	0.415502	0	0	0.01759	-0.270082	0.096669	0.676328	1.55358	0	0
0.9	2.65112	1.46237	-0.94936	0.566174	0.315819	0.942523	0.419694	-0.141521	-0.248536	0.955855	-0.319077	0	0	-0.252196	-0.00928123	-0.226093	0.0251522	-0.263197	0	0	-0.172116	0.0868466	-0.187562	-0.185951	-0.285215	-0.173363	0.704314	0.417845	0	0	0.0300922	-0.269453	0.104873	0.675437	1.55327	0	0
0.91	2.63425	1.46474	-0.9322	0.565792	0.32481	0.941527	0.42372	-0.138446	-0.256449	0.901853	-0.30966	0	0	-0.259998	-0.0099056	-0.226547	0.0247159	-0.256917	0	0	-0.169121	0.0879359	-0.187301	-0.183929	-0.284798	-0.175996	0.706989	0.422263	0	0	0.0422022	-0.268343	0.112563	0.674295	1.55326	0	0
0.92	2.61312	1.46826	-0.911602	0.565532	0.333891	0.940321	0.427117	-0.134491	-0.261952	0.844124	-0.303244	0	0	-0.266899	-0.00996918	-0.227357	0.0238459	-0.251424	0	0	-0.164887	0.0882986	-0.186212	-0.182368	-0.284148	-0.179277	0.71001	0.428643	0	0	0.0535498	-0.267127	0.120216	0.673951	1.55275	0	0
0.93	2.58194	1.47284	-0.88165	0.565375	0.343086	0.938934	0.429704	-0.129043	-0.264615	0.781921	-0.298633	0	0	-0.272921	-0.00986612	-0.227964	0.0219767	-0.249633	0	0	-0.160219	0.0882417	-0.192057	-0.173619	-0.293093	-0.149756	0.708943	0.409024	0	0	0.0545114	-0.264316	0.105713	0.683234	1.56522	0	0
0.94	2.55136	1.47645	-0.852426	0.565401	0.352372	0.937526	0.427723	-0.121497	-0.264278	0.712481	-0.301101	0	0	-0.280287	-0.0103529	-0.229045	0.0200254	-0.240556	0	0	-0.153774	0.0886998	-0.182395	-0.177451	-0.277863	-0.197456	0.712906	0.448842	0	0	0.0747751	-0.265687	0.139354	0.674483	1.54399	0	0
0.95	2.51037	1.48032	-0.812967	0.565528	0.361834	0.936032	0.422525	-0.11183	-0.259306	0.634878	-0.309531	0	0	-0.288511	-0.0108567	-0.228027	0.0146433	-0.23736	0	0	-0.148017	0.0887962	-0.186607	-0.168013	-0.298701	-0.134984	0.710426	0.37248	0	0	0.0763735	-0.263561	0.129411	0.682097	1.55362	0	0
0.96	2.4689	1.48423	-0.772586	0.565741	0.371422	0.934483	0.413401	-0.101299	-0.249717	0.550608	-0.317965	0	0	-0.296818	-0.0114599	-0.226645	0.00973136	-0.233584	0	0	-0.141882	0.088475	-0.185143	-0.166502	-0.298811	-0.13381	0.712138	0.370374	0	0	0.084185	-0.26302	0.136282	0.684987	1.55067	0	0
